<svg width="94" height="94" viewBox="0 0 94 94" fill="none" xmlns="http://www.w3.org/2000/svg">
<path d="M17.2835 39.2755C17.5399 39.8839 17.7188 40.5073 17.8203 41.1457C17.9218 41.7842 17.9346 42.4061 17.8588 43.0114C17.7768 43.6663 17.5895 44.2772 17.2968 44.844C16.9942 45.4096 16.5856 45.8958 16.0711 46.3026C15.5566 46.7094 14.9405 47.0021 14.2227 47.1807C13.4951 47.358 12.6652 47.3858 11.7331 47.2641C10.573 47.1127 9.61678 46.7408 8.86455 46.1484C8.10241 45.5548 7.5566 44.8028 7.22715 43.8925C6.89769 42.9822 6.80128 41.9813 6.93794 40.8898C7.00254 40.3739 7.11672 39.8644 7.28047 39.3613C7.43556 38.8471 7.66253 38.3624 7.96138 37.9073C8.39768 37.9642 8.82839 38.0658 9.2535 38.2121C9.66995 38.3471 10.0876 38.5126 10.5065 38.7085C10.5127 38.7395 10.5133 38.7749 10.5084 38.8146C10.5046 38.8444 10.5009 38.8741 10.4972 38.9039C10.4761 39.0726 10.4271 39.2225 10.3502 39.3537L8.30683 39.2533C7.97695 39.8758 7.77411 40.4897 7.69833 41.095C7.5977 41.8987 7.72951 42.6168 8.09376 43.2493C8.44933 43.8705 8.96483 44.3815 9.64026 44.7824C10.3169 45.1732 11.0866 45.425 11.9493 45.5376C12.8615 45.6567 13.6908 45.6339 14.437 45.4691C15.1746 45.2931 15.7796 44.9687 16.252 44.4959C16.7244 44.023 17.009 43.3997 17.1059 42.6257C17.1494 42.2784 17.1575 41.9719 17.1303 41.7061C17.1031 41.4404 17.0444 41.1453 16.954 40.8209L14.0982 40.448L13.6572 41.5553C13.6163 41.56 13.5612 41.5578 13.4918 41.5488C13.3728 41.5333 13.2575 41.4879 13.146 41.4129C13.1894 41.1463 13.2428 40.8406 13.3061 40.4959C13.3707 40.1413 13.4203 39.8251 13.4551 39.5472C13.4899 39.2694 13.5185 38.9605 13.5409 38.6205C13.5633 38.2806 13.5863 37.976 13.61 37.7068C13.7364 37.6628 13.8591 37.6486 13.9781 37.6641C14.0079 37.668 14.037 37.6768 14.0655 37.6906C14.0853 37.6932 14.1101 37.6965 14.1399 37.7004C14.1361 37.8915 14.1422 38.0839 14.1583 38.2776C14.1744 38.4713 14.2195 38.6738 14.2939 38.8852L17.2835 39.2755Z" fill="white"/>
<path d="M14.3073 35.6559L18.2695 37.2612L19.8449 33.2065L18.11 32.1638C18.1349 32.0444 18.1629 31.9586 18.1939 31.9065C18.2192 31.8412 18.2685 31.7695 18.3418 31.6913C18.7045 31.7519 19.0562 31.8405 19.3971 31.957C19.738 32.0736 20.0753 32.1994 20.409 32.3346L20.8399 32.5092L18.6235 38.2138C18.5221 38.4748 18.4054 38.7889 18.2734 39.1562C18.1543 39.5179 18.0533 39.833 17.9705 40.1015C17.7835 40.0581 17.6249 39.9831 17.4947 39.8764C17.5265 39.6843 17.5582 39.4921 17.59 39.3C17.6124 39.1041 17.6256 38.9045 17.6296 38.7011L9.28817 35.3216L8.59182 36.2856C8.40486 36.2422 8.25172 36.1532 8.1324 36.0185C8.23945 35.7706 8.362 35.4966 8.50006 35.1965C8.64173 34.8871 8.76327 34.6019 8.86467 34.3409L10.9562 28.958C11.3676 29.1139 11.7736 29.2837 12.1742 29.4676C12.5747 29.6515 12.9598 29.8614 13.3293 30.0974C13.3302 30.2057 13.3179 30.2924 13.2926 30.3577C13.2672 30.4229 13.2282 30.5096 13.1755 30.6177L11.1852 30.2321L9.78907 33.8254L13.5427 35.3462L14.5531 32.7456L13.433 31.9842C13.4377 31.8891 13.4647 31.7921 13.5138 31.6934C13.5536 31.5908 13.6223 31.5107 13.7198 31.4531C13.9164 31.5544 14.1427 31.6623 14.3986 31.7767C14.6545 31.8912 14.9168 32.0029 15.1856 32.1117C15.4822 32.2319 15.7759 32.3455 16.0669 32.4526C16.3578 32.5597 16.6181 32.649 16.8478 32.7205C16.8523 32.8194 16.8346 32.9201 16.7947 33.0226C16.7549 33.1252 16.7094 33.2146 16.6583 33.291L15.3178 33.0554L14.3073 35.6559Z" fill="white"/>
<path d="M14.4057 24.7417L13.0689 26.6622L14.5563 28.2792C14.4959 28.3836 14.4399 28.4727 14.3885 28.5466C14.3371 28.6204 14.2666 28.6866 14.1771 28.7452C13.8063 28.5255 13.4273 28.2998 13.0403 28.0683C12.6509 27.8228 12.2527 27.5461 11.8456 27.2383L16.8588 20.0363C17.2425 20.2901 17.609 20.5685 17.9585 20.8715C18.3136 21.1663 18.6642 21.4764 19.0103 21.8017C18.9855 21.9073 18.9475 21.997 18.896 22.0709C18.8446 22.1448 18.7806 22.228 18.7039 22.3206L16.7195 21.4177L15.3055 23.449L22.6499 28.7797L23.6039 27.9341C23.7748 28.0211 23.9022 28.1444 23.986 28.304C23.8155 28.5139 23.6165 28.7648 23.389 29.0567C23.1752 29.3463 22.9883 29.606 22.8284 29.8358C22.6684 30.0656 22.4754 30.3517 22.2492 30.6941C22.0369 31.0341 21.8588 31.3249 21.7151 31.5665C21.5442 31.4795 21.4082 31.3685 21.3073 31.2335C21.4144 31.0271 21.502 30.8312 21.5701 30.6459C21.6382 30.4606 21.6982 30.2694 21.7501 30.0723L14.4057 24.7417Z" fill="white"/>
<path d="M29.2265 22.1935L30.3261 21.7451C30.4609 21.8815 30.543 22.0386 30.5722 22.2165C30.3444 22.3621 30.0886 22.5286 29.8047 22.7161C29.5347 22.9057 29.2876 23.0844 29.0635 23.2522C28.8393 23.42 28.566 23.6308 28.2436 23.8846C27.9351 24.1406 27.6745 24.3605 27.462 24.5446C27.3272 24.4082 27.2332 24.2601 27.1799 24.1001C27.3305 23.9499 27.4742 23.7986 27.611 23.6463C27.7478 23.4939 27.866 23.3243 27.9656 23.1373L22.7173 15.826L21.6177 16.2744C21.4829 16.1381 21.4008 15.9809 21.3716 15.803C21.5936 15.6493 21.8425 15.4817 22.1183 15.3002C22.4022 15.1127 22.6562 14.9351 22.8804 14.7673C23.1125 14.5935 23.3829 14.3787 23.6915 14.1227C24 13.8668 24.2635 13.6509 24.4818 13.4749C24.6166 13.6113 24.7107 13.7595 24.7639 13.9194C24.6271 14.0718 24.4904 14.2241 24.3536 14.3764C24.2168 14.5288 24.0917 14.6974 23.9782 14.8822L29.2265 22.1935Z" fill="white"/>
<path d="M29.7475 11.3648L36.3338 14.9304C36.576 15.0626 36.8013 15.2189 37.0098 15.3992C37.2274 15.5754 37.4424 15.7582 37.6549 15.9477L37.6959 15.9292C37.5917 15.713 37.4823 15.51 37.3678 15.3203C37.2624 15.1265 37.1542 14.9011 37.0433 14.644L34.6463 9.12748L33.4742 9.326C33.3715 9.16386 33.325 8.99292 33.3345 8.81319C33.5847 8.71158 33.8141 8.62481 34.0226 8.5529C34.2403 8.47688 34.4768 8.38142 34.7321 8.26652C34.9966 8.14751 35.2434 8.02548 35.4726 7.90043C35.7109 7.77127 35.9557 7.64465 36.2071 7.52056C36.3097 7.6827 36.37 7.84748 36.3878 8.01491C36.2212 8.1337 36.0547 8.2525 35.8881 8.3713C35.7216 8.4901 35.563 8.62726 35.4123 8.78278L39.3944 18.0102C39.3658 18.045 39.3347 18.0864 39.301 18.1345C39.2673 18.1825 39.227 18.2281 39.1802 18.271L30.7346 13.7659C30.5055 13.6387 30.2796 13.4937 30.0568 13.3308C29.8341 13.1679 29.6028 12.9978 29.363 12.8207L29.3219 12.8391C29.4495 13.0339 29.5668 13.2552 29.6738 13.5031C29.786 13.7377 29.8856 13.9561 29.9728 14.158L32.4809 19.97L33.659 19.7852C33.7616 19.9473 33.8082 20.1183 33.7986 20.298C33.5445 20.3905 33.2994 20.4788 33.0635 20.563C32.8276 20.6472 32.582 20.7468 32.3267 20.8617C32.0713 20.9766 31.8408 21.0858 31.635 21.1894C31.4332 21.3021 31.2085 21.4251 30.9611 21.5584C30.8585 21.3963 30.7983 21.2315 30.7805 21.0641C30.951 20.9545 31.1129 20.8377 31.2664 20.7138C31.429 20.5858 31.583 20.4507 31.7285 20.3085L28.1625 12.0451L26.9904 12.2436C26.8877 12.0815 26.8412 11.9106 26.8507 11.7308C27.1009 11.6292 27.3805 11.5199 27.6893 11.4028C28.0073 11.2817 28.2939 11.1636 28.5493 11.0487L29.0964 10.8025L29.7475 11.3648Z" fill="white"/>
<path d="M45.3451 7.27381L43.0062 7.34758L42.6363 9.50531C42.5166 9.51909 42.4118 9.5274 42.3219 9.53023C42.2319 9.53307 42.1364 9.51607 42.0352 9.47924C41.9822 9.0507 41.929 8.61216 41.8754 8.16363C41.8315 7.70479 41.8068 7.22032 41.8014 6.71024L50.572 6.43362C50.6059 6.89278 50.6098 7.35288 50.5838 7.81393C50.5677 8.27467 50.5368 8.74087 50.491 9.21255C50.3923 9.25569 50.2979 9.27867 50.208 9.28151C50.118 9.28435 50.0129 9.28266 49.8927 9.27645L49.393 7.14614L46.9193 7.22416L47.1936 16.295L48.4471 16.5556C48.4828 16.7446 48.4631 16.9203 48.388 17.0828C48.1175 17.0713 47.7971 17.0614 47.4267 17.053C47.0665 17.0544 46.7465 17.0595 46.4667 17.0683C46.1868 17.0771 45.8421 17.093 45.4327 17.1159C45.0335 17.1485 44.6942 17.1792 44.415 17.2081C44.3792 17.0191 44.3839 16.8439 44.4291 16.6824C44.6581 16.6451 44.8668 16.5985 45.0551 16.5425C45.2435 16.4866 45.4316 16.4206 45.6194 16.3447L45.3451 7.27381Z" fill="white"/>
<path d="M50.9454 11.7749C51.185 10.7321 51.5922 9.85277 52.167 9.13703C52.7538 8.41388 53.4597 7.90947 54.2845 7.6238C55.1214 7.33072 56.0309 7.30183 57.0131 7.53713C58.0051 7.77476 58.812 8.21485 59.4338 8.85739C60.058 9.49018 60.4753 10.2637 60.686 11.1779C60.8989 12.0823 60.8855 13.056 60.6459 14.0988C60.3974 15.1806 59.9797 16.0831 59.3929 16.8062C58.8083 17.5196 58.0987 18.018 57.2641 18.3014C56.4318 18.5749 55.5196 18.5929 54.5277 18.3553C53.5455 18.12 52.7412 17.6908 52.1148 17.0678C51.5004 16.4373 51.0868 15.6698 50.8739 14.7654C50.673 13.8535 50.6968 12.8567 50.9454 11.7749ZM58.9919 13.5946C59.124 13.0196 59.1798 12.4417 59.1593 11.861C59.1508 11.2728 59.0608 10.7268 58.8892 10.223C58.7177 9.71922 58.4579 9.28682 58.11 8.92583C57.7717 8.56716 57.34 8.32493 56.8149 8.19913C56.2508 8.064 55.7381 8.08513 55.2767 8.2625C54.8272 8.43245 54.4235 8.71618 54.0654 9.11367C53.717 9.5135 53.4173 9.99181 53.1663 10.5486C52.9272 11.098 52.736 11.6846 52.5927 12.3083C52.4583 12.8931 52.3954 13.4796 52.4039 14.0677C52.4147 14.6461 52.5059 15.1872 52.6774 15.691C52.8489 16.1948 53.1135 16.6284 53.4713 16.9917C53.8312 17.3453 54.2883 17.5885 54.8427 17.7213C55.3678 17.8471 55.8491 17.8287 56.2866 17.6662C56.736 17.4962 57.1338 17.2162 57.48 16.8261C57.8261 16.436 58.1247 15.9626 58.3757 15.4058C58.6365 14.8513 58.8419 14.2476 58.9919 13.5946Z" fill="white"/>
<path d="M67.7401 19.778C67.3066 20.5667 66.8764 21.1729 66.4495 21.5967C66.0361 22.0166 65.6068 22.2891 65.1615 22.4142C64.7211 22.5305 64.2594 22.5195 63.7765 22.381C63.2974 22.2562 62.7846 22.0372 62.238 21.7239C61.6567 21.3907 61.1651 21.0398 60.763 20.671C60.3697 20.3073 60.0915 19.9001 59.9285 19.4494C59.7655 18.9987 59.7365 18.4808 59.8414 17.8955C59.955 17.3153 60.2213 16.6439 60.6404 15.8815L63.4222 10.8207L62.5646 9.98342C62.6301 9.802 62.7361 9.66108 62.8826 9.56064C63.112 9.70367 63.3651 9.866 63.6417 10.0476C63.9271 10.2342 64.1912 10.3971 64.4341 10.5364C64.6858 10.6806 64.9899 10.8434 65.3466 11.0248C65.7032 11.2062 66.0054 11.3621 66.2532 11.4926C66.1877 11.674 66.0947 11.8224 65.9743 11.9377C65.7863 11.8646 65.5959 11.7958 65.4031 11.7314C65.2103 11.667 65.0055 11.6245 64.7886 11.6039L61.7901 17.0591C61.2746 17.9968 61.1245 18.8096 61.3396 19.4976C61.5547 20.1856 62.0831 20.7707 62.9246 21.2531C63.4972 21.5813 63.9999 21.7254 64.4327 21.6853C64.8741 21.6502 65.2606 21.4972 65.5921 21.2262C65.9284 20.9465 66.2295 20.6062 66.4954 20.2055C66.7662 19.796 67.0147 19.3853 67.2411 18.9734L69.7339 14.4384L68.8764 13.6011C68.9419 13.4197 69.0478 13.2788 69.1943 13.1783C69.4238 13.3213 69.6334 13.4588 69.8233 13.5907C70.0219 13.7276 70.2427 13.8656 70.4856 14.0049C70.7372 14.1491 70.9763 14.2746 71.2028 14.3814C71.4293 14.4882 71.6665 14.6068 71.9142 14.7373C71.8487 14.9187 71.7558 15.0671 71.6353 15.1824C71.4078 15.0981 71.1977 15.0238 71.0049 14.9594C70.8121 14.895 70.627 14.8581 70.4497 14.8486L67.7401 19.778Z" fill="white"/>
<path d="M72.2885 27.9671C72.3532 28.0876 72.3688 28.1945 72.3352 28.2879C72.3086 28.3883 72.261 28.4819 72.1923 28.5687C71.5487 28.578 70.9348 28.469 70.3507 28.2417C69.7666 28.0144 69.2403 27.6684 68.7717 27.2036C68.296 26.7318 67.9139 26.1978 67.6253 25.6018C67.3438 25.0128 67.1842 24.3828 67.1465 23.7117C67.1228 23.0403 67.2493 22.3561 67.526 21.659C67.8097 20.9546 68.2823 20.2547 68.944 19.5591C69.5988 18.8708 70.274 18.3858 70.9696 18.1042C71.6793 17.8223 72.3702 17.698 73.0424 17.7311C73.7287 17.764 74.3677 17.919 74.9595 18.1962C75.5653 18.4732 76.0883 18.8301 76.5285 19.2667C77.0468 19.7808 77.4563 20.2714 77.757 20.7386C78.0716 21.2057 78.2952 21.6597 78.4275 22.1008C78.1247 22.4482 77.7999 22.7316 77.4532 22.951C77.1136 23.1774 76.7632 23.379 76.4019 23.5557C76.324 23.4926 76.2459 23.4151 76.1676 23.3234C76.0893 23.2316 76.0284 23.136 75.985 23.0366L77.2015 21.5184C77.0637 21.1846 76.9021 20.8975 76.7167 20.6573C76.5312 20.417 76.3107 20.1702 76.0551 19.9166C75.5581 19.4237 74.9661 19.1322 74.2791 19.0421C73.5991 18.9591 72.8974 19.0658 72.174 19.3621C71.4576 19.6655 70.7928 20.1396 70.1794 20.7844C69.5315 21.4655 69.0553 22.162 68.7507 22.8738C68.4531 23.5784 68.3546 24.2622 68.4552 24.9252C68.5558 25.5883 68.883 26.1945 69.4368 26.7438C69.8769 27.1804 70.3397 27.4845 70.825 27.6561C71.3103 27.8276 71.7982 27.9313 72.2885 27.9671Z" fill="white"/>
<path d="M75.7659 36.011L76.0958 37.1634C75.949 37.2886 75.7872 37.3585 75.6102 37.3732C75.4904 37.13 75.3528 36.8567 75.1974 36.5532C75.0386 36.2635 74.8882 35.998 74.7463 35.7567C74.6043 35.5154 74.4251 35.2206 74.2087 34.8725C73.9888 34.5381 73.7994 34.2555 73.6404 34.0247C73.7871 33.8995 73.9414 33.8166 74.1031 33.776C74.2351 33.9413 74.3732 34.0971 74.5172 34.2433C74.6612 34.3896 74.8113 34.5263 74.9673 34.6535L78.6752 32.3789L76.1273 28.0478L72.4194 30.3223L72.7493 31.4747C72.6025 31.5999 72.4407 31.6698 72.2637 31.6846C72.1439 31.4414 72.0063 31.168 71.8509 30.8645C71.6921 30.5749 71.5418 30.3094 71.3998 30.068C71.2578 29.8267 71.0786 29.5319 70.8622 29.1838C70.6423 28.8495 70.4529 28.5669 70.2939 28.336C70.4406 28.2108 70.5949 28.1279 70.7566 28.0873C70.8972 28.2474 71.0352 28.4032 71.1707 28.5547C71.3147 28.7009 71.4648 28.8376 71.6208 28.9648L79.2924 24.2589L78.9625 23.1065C79.1093 22.9813 79.2711 22.9113 79.4481 22.8966C79.5764 23.1346 79.7158 23.401 79.866 23.6959C80.0214 23.9994 80.17 24.2718 80.312 24.5131C80.4591 24.7631 80.6425 25.0552 80.8624 25.3895C81.0823 25.7239 81.2674 26.0091 81.4179 26.2452C81.2712 26.3704 81.1169 26.4533 80.9552 26.4938C80.8197 26.3424 80.6842 26.1909 80.5487 26.0394C80.4132 25.888 80.2606 25.7469 80.091 25.6164L76.8306 27.6164L79.3785 31.9476L82.6389 29.9475L82.309 28.7952C82.4558 28.67 82.6176 28.6 82.7946 28.5853C82.9229 28.8232 83.0623 29.0897 83.2125 29.3845C83.3679 29.6881 83.5165 29.9605 83.6585 30.2018C83.8056 30.4518 83.989 30.7439 84.2089 31.0782C84.4287 31.4125 84.6139 31.6977 84.7644 31.9338C84.6177 32.0591 84.4634 32.1419 84.3017 32.1825C84.1662 32.031 84.0307 31.8796 83.8952 31.7281C83.7597 31.5766 83.6071 31.4356 83.4375 31.3051L75.7659 36.011Z" fill="white"/>
<path d="M85.0944 44.3386L86.3275 43.7343L86.5038 42.5527C86.6895 42.502 86.8661 42.5076 87.0336 42.5696C87.0426 42.7497 87.0554 42.9646 87.0718 43.2143C87.0882 43.464 87.1047 43.7137 87.1211 43.9634C87.1386 44.223 87.1569 44.4424 87.1759 44.6214C87.2065 44.9097 87.2528 45.2517 87.3149 45.6473C87.377 46.0428 87.4278 46.3793 87.4673 46.6566C87.2816 46.7074 87.1066 46.7167 86.9423 46.6845C86.8814 46.4901 86.825 46.29 86.773 46.0845C86.732 45.8878 86.6463 45.6961 86.5159 45.5093L80.9275 47.999C80.5912 48.1469 80.2162 48.3091 79.8026 48.4857C79.3889 48.6623 79.0113 48.7996 78.6697 48.8978L78.6729 48.9276C79.058 48.9554 79.4546 48.9971 79.8627 49.0525C80.2708 49.108 80.669 49.1645 81.0573 49.2222L87.0034 50.1035L87.1639 48.7728C87.3496 48.7221 87.5261 48.7277 87.6936 48.7897C87.7122 49.0592 87.7268 49.3393 87.7375 49.6299C87.7483 49.9205 87.7684 50.205 87.7979 50.4834C87.8285 50.7718 87.867 51.0392 87.9132 51.2856C87.9595 51.532 88.0024 51.7939 88.0418 52.0712C87.8562 52.122 87.6812 52.1313 87.5169 52.0991C87.456 51.9047 87.3946 51.7052 87.3327 51.5008C87.2708 51.2963 87.1895 51.0991 87.0889 50.909L76.807 49.2548C76.7599 49.1896 76.7119 49.0691 76.6631 48.8934C76.6153 48.7277 76.5867 48.6001 76.5772 48.5106L83.9907 44.8832L76.1739 43.2883C76.1267 43.2231 76.0798 43.1126 76.0331 42.9568C75.9875 42.8109 75.9599 42.6932 75.9504 42.6037L85.7387 38.1854L85.915 37.0039C86.1007 36.9532 86.2773 36.9588 86.4447 37.0207C86.4538 37.2008 86.4665 37.4157 86.483 37.6654C86.4994 37.9151 86.5159 38.1648 86.5323 38.4145C86.5498 38.6742 86.568 38.8935 86.587 39.0725C86.6176 39.3609 86.664 39.7029 86.7261 40.0984C86.7882 40.494 86.8389 40.8304 86.8784 41.1078C86.6928 41.1585 86.5178 41.1678 86.3535 41.1357C86.3104 40.9191 86.2529 40.7092 86.181 40.5058C86.1092 40.3025 86.0229 40.1058 85.9223 39.9157L80.2293 42.1303C79.8532 42.2825 79.4573 42.437 79.0416 42.5937C78.6357 42.7493 78.2476 42.8828 77.8773 42.9942L77.8805 43.024C78.2645 43.0419 78.6611 43.0835 79.0703 43.1489C79.4805 43.2242 79.8968 43.309 80.3191 43.4031L85.0944 44.3386Z" fill="white"/>
<path d="M77.1639 52.7387L76.7063 53.8389C76.5142 53.8411 76.3445 53.791 76.1973 53.6885C76.2547 53.4241 76.3169 53.1249 76.384 52.7911C76.4398 52.4658 76.4872 52.1645 76.5262 51.8872C76.5651 51.6099 76.6082 51.2676 76.6553 50.8601C76.6912 50.4611 76.7187 50.1215 76.7379 49.8413C76.9301 49.8392 77.1018 49.8745 77.2532 49.9472C77.2536 50.1595 77.2597 50.3675 77.2715 50.5714C77.2832 50.7753 77.3204 50.9778 77.383 51.179L86.288 52.4837L86.7455 51.3835C86.9377 51.3813 87.1073 51.4314 87.2545 51.5339C87.2071 51.7998 87.1505 52.0947 87.0848 52.4186C87.0177 52.7524 86.9646 53.0579 86.9257 53.3352C86.8853 53.6224 86.8472 53.9654 86.8113 54.3645C86.7755 54.7635 86.743 55.1023 86.7139 55.3811C86.5218 55.3832 86.35 55.3479 86.1986 55.2752C86.1869 55.0714 86.1751 54.8675 86.1634 54.6637C86.1517 54.4598 86.1201 54.2531 86.0688 54.0434L77.1639 52.7387Z" fill="white"/>
<path d="M84.4793 61.0029L85.2539 58.7948L83.3834 57.6476C83.4137 57.5309 83.4437 57.4301 83.4735 57.3452C83.5033 57.2602 83.5535 57.1775 83.6242 57.0968C84.0413 57.2068 84.4678 57.3202 84.9036 57.437C85.3456 57.5667 85.8044 57.7239 86.28 57.9085L83.3756 66.1889C82.9369 66.0498 82.5082 65.8823 82.0895 65.6865C81.6674 65.5002 81.2456 65.298 80.824 65.08C80.8196 64.9719 80.8322 64.8754 80.862 64.7904C80.8918 64.7055 80.9313 64.6081 80.9804 64.4983L83.1388 64.8247L83.958 62.4892L75.4352 59.3719L74.7414 60.4437C74.553 60.4067 74.3969 60.323 74.2732 60.1926C74.3813 59.9447 74.506 59.6496 74.6473 59.3073C74.7758 58.971 74.8864 58.6708 74.9791 58.4066C75.0718 58.1424 75.1813 57.8151 75.3076 57.4248C75.4212 57.0404 75.5149 56.7127 75.5888 56.4416C75.7772 56.4786 75.9383 56.5481 76.072 56.6503C76.024 56.8776 75.9921 57.0895 75.9761 57.286C75.9602 57.4825 75.9537 57.6824 75.9565 57.8857L84.4793 61.0029Z" fill="white"/>
<path d="M69.5478 69.576L68.6565 70.3608C68.4843 70.2764 68.3552 70.155 68.269 69.9966C68.4364 69.7843 68.6234 69.5429 68.8299 69.2726C69.0226 69.0048 69.1973 68.7549 69.3539 68.5227C69.5105 68.2906 69.6994 68.0018 69.9206 67.6561C70.1279 67.3131 70.3017 67.0197 70.442 66.7761C70.6142 66.8605 70.7517 66.9695 70.8546 67.1031C70.7617 67.2944 70.6797 67.4873 70.6088 67.6819C70.5378 67.8765 70.4778 68.0726 70.4288 68.2704L73.9865 70.7735L76.797 66.608L73.2393 64.1049L72.348 64.8897C72.1758 64.8053 72.0467 64.6839 71.9605 64.5255C72.1279 64.3132 72.3149 64.0719 72.5214 63.8015C72.7141 63.5337 72.8888 63.2838 73.0454 63.0517C73.202 62.8195 73.3909 62.5307 73.6121 62.1851C73.8194 61.842 73.9932 61.5486 74.1335 61.305C74.3057 61.3895 74.4432 61.4984 74.5461 61.632C74.4614 61.8291 74.3794 62.022 74.3003 62.2108C74.2293 62.4054 74.1693 62.6016 74.1203 62.7993L81.481 67.9781L82.3724 67.1933C82.5445 67.2777 82.6737 67.3992 82.7598 67.5575C82.6006 67.7756 82.4205 68.0157 82.2196 68.2777C82.0131 68.548 81.8315 68.7993 81.6749 69.0314C81.5127 69.2718 81.3279 69.5635 81.1206 69.9066C80.9132 70.2497 80.7353 70.5402 80.5869 70.778C80.4147 70.6936 80.2771 70.5846 80.1743 70.4511C80.2534 70.2623 80.3326 70.0735 80.4117 69.8846C80.4909 69.6958 80.5536 69.4955 80.6001 69.2837L77.4718 67.0827L74.6612 71.2482L77.7895 73.4492L78.6809 72.6644C78.853 72.7488 78.9822 72.8703 79.0683 73.0286C78.9091 73.2467 78.729 73.4868 78.5281 73.7488C78.3216 74.0191 78.14 74.2704 77.9834 74.5025C77.8212 74.7429 77.6364 75.0346 77.429 75.3777C77.2217 75.7208 77.0438 76.0113 76.8953 76.2491C76.7232 76.1647 76.5856 76.0557 76.4828 75.9222C76.5619 75.7333 76.641 75.5445 76.7202 75.3557C76.7993 75.1669 76.8621 74.9666 76.9086 74.7548L69.5478 69.576Z" fill="white"/>
<path d="M61.4123 79.7538C60.9363 78.9899 60.6163 78.3156 60.4521 77.7307C60.2848 77.1597 60.2523 76.6443 60.3545 76.1845C60.462 75.7331 60.6895 75.323 61.0369 74.9542C61.3707 74.5823 61.8017 74.2248 62.33 73.8815C62.8918 73.5165 63.4267 73.2405 63.9346 73.0536C64.4341 72.8721 64.9167 72.8149 65.3825 72.8819C65.8484 72.9488 66.309 73.1682 66.7645 73.54C67.2116 73.9172 67.6651 74.475 68.1252 75.2134L71.1792 80.1148L72.3064 79.7401C72.4321 79.885 72.5036 80.0472 72.5212 80.2266C72.2895 80.3652 72.03 80.5159 71.7427 80.6787C71.447 80.847 71.1817 81.0074 70.947 81.1599C70.7038 81.3179 70.4198 81.5144 70.0949 81.7493C69.7701 81.9842 69.4929 82.1822 69.2634 82.3432C69.1378 82.1983 69.0536 82.0443 69.0109 81.8813C69.1628 81.7469 69.312 81.6082 69.4585 81.4653C69.6051 81.3224 69.7384 81.1582 69.8585 80.9729L66.5665 75.6896C66.0007 74.7814 65.3702 74.2611 64.675 74.1285C63.9798 73.9959 63.2255 74.1939 62.4121 74.7224C61.8587 75.082 61.4971 75.4659 61.3275 75.8742C61.1494 76.288 61.0991 76.7082 61.1764 77.1349C61.2591 77.57 61.4106 78.0022 61.6309 78.4314C61.8565 78.869 62.0935 79.2873 62.3421 79.6862L65.0788 84.0784L66.206 83.7037C66.3316 83.8486 66.4032 84.0108 66.4207 84.1902C66.189 84.3288 65.9714 84.4523 65.768 84.5606C65.5562 84.6744 65.3329 84.8075 65.0981 84.9601C64.8549 85.1181 64.6338 85.2737 64.4347 85.4269C64.2356 85.58 64.0214 85.7372 63.7919 85.8982C63.6662 85.7533 63.5821 85.5993 63.5394 85.4363C63.7195 85.2716 63.8828 85.1177 64.0294 84.9748C64.1759 84.8319 64.2951 84.6829 64.387 84.5279L61.4123 79.7538Z" fill="white"/>
<path d="M56.4331 76.7428C56.9735 76.5614 57.5214 76.4197 58.0768 76.3177C58.6227 76.2188 59.1191 76.1946 59.566 76.245C59.6978 76.6543 59.8011 77.0731 59.876 77.5015C59.9444 77.9427 59.9845 78.3933 59.996 78.8535C59.9676 78.8631 59.9392 78.8726 59.9107 78.8822C59.8853 78.9012 59.8537 78.9171 59.8158 78.9298C59.6451 78.9871 59.489 79.0079 59.3474 78.9921L58.5085 77.1695C58.3162 77.1919 58.0828 77.2175 57.8084 77.2463C57.5277 77.2878 57.2261 77.3626 56.9038 77.4708C56.5625 77.5854 56.2255 77.746 55.8929 77.9525C55.5602 78.1591 55.3059 78.4133 55.1298 78.7149C54.9569 79.0261 54.9378 79.3911 55.0727 79.81C55.1523 80.0575 55.2528 80.2716 55.374 80.4524C55.4858 80.6364 55.6624 80.7934 55.9038 80.9233C56.1452 81.0532 56.4844 81.1608 56.9216 81.2461C57.3618 81.341 57.9439 81.4198 58.6679 81.4826C59.4486 81.5581 60.0538 81.6925 60.4837 81.8857C60.9041 82.0821 61.2153 82.331 61.4173 82.6324C61.6224 82.9432 61.7878 83.2938 61.9134 83.6841C62.1065 84.2838 62.0921 84.8265 61.8703 85.3123C61.6421 85.8108 61.2775 86.2444 60.7764 86.613C60.2753 86.9816 59.7119 87.2709 59.0862 87.4809C58.669 87.6209 58.2397 87.7229 57.798 87.7867C57.3594 87.8601 56.937 87.8859 56.5308 87.864C56.3709 87.4325 56.274 87.0009 56.2401 86.5693C56.1998 86.1504 56.1847 85.7283 56.1949 85.303C56.2203 85.2839 56.2519 85.268 56.2898 85.2553C56.3183 85.2457 56.3467 85.2362 56.3751 85.2267C56.5363 85.1726 56.6924 85.1518 56.8436 85.1644L57.6113 87.0109C57.8288 87.0012 58.0511 86.974 58.2784 86.9294C58.5087 86.8942 58.7328 86.8401 58.9509 86.7669C59.3206 86.6428 59.6577 86.4664 59.9622 86.2376C60.2698 86.0183 60.4943 85.7531 60.6358 85.4419C60.7677 85.1339 60.7693 84.7801 60.6407 84.3803C60.5549 84.1137 60.4293 83.8869 60.264 83.6998C60.1018 83.5222 59.8448 83.3764 59.493 83.2625C59.1348 83.1612 58.6188 83.076 57.9453 83.0067C57.1016 82.9313 56.4016 82.8288 55.8451 82.6991C55.2887 82.5695 54.8417 82.3556 54.5041 82.0576C54.1666 81.7595 53.9013 81.3107 53.7082 80.711C53.5581 80.2445 53.5306 79.8002 53.6258 79.378C53.7241 78.9653 53.9118 78.5859 54.189 78.2397C54.4693 77.903 54.8044 77.606 55.1942 77.3485C55.584 77.0911 55.997 76.8892 56.4331 76.7428Z" fill="white"/>
<path d="M44.6589 25.918C45.2911 23.8091 48.2817 23.8091 48.9139 25.918C49.4248 27.6224 51.6376 28.0613 52.7558 26.6771C54.1331 24.9722 56.885 26.0924 56.68 28.2746L56.6689 28.3925C56.5024 30.1646 58.3807 31.4052 59.9452 30.5564C61.8742 29.5099 63.9929 31.5923 62.98 33.5391L62.9078 33.6779C62.0837 35.262 63.3453 37.1286 65.1225 36.9545C67.3207 36.7391 68.4301 39.5324 66.7408 40.9554C65.3693 42.1107 65.7862 44.3493 67.4978 44.8843C69.6227 45.5485 69.6227 48.5558 67.4978 49.2199C65.7862 49.7549 65.3693 51.9936 66.7408 53.1489C68.4301 54.5719 67.3207 57.3652 65.1225 57.1498C63.3453 56.9757 62.0837 58.8423 62.9078 60.4264L62.98 60.5652C63.9929 62.512 61.8742 64.5944 59.9452 63.5479C58.3807 62.6991 56.5024 63.9397 56.6689 65.7118L56.68 65.8297C56.885 68.0118 54.1331 69.1321 52.7558 67.4271C51.6376 66.043 49.4248 66.4818 48.9139 68.1863C48.2817 70.2952 45.2911 70.2952 44.6589 68.1863C44.148 66.4818 41.9351 66.043 40.817 67.4271C39.4397 69.1321 36.6878 68.0118 36.8928 65.8297L36.9039 65.7118C37.0704 63.9397 35.1921 62.6991 33.6276 63.5479C31.6986 64.5944 29.5798 62.512 30.5927 60.5652L30.6649 60.4264C31.4891 58.8423 30.2274 56.9757 28.4503 57.1498C26.2521 57.3652 25.1427 54.5719 26.8319 53.1489C28.2035 51.9936 27.7866 49.7549 26.0749 49.2199C23.9501 48.5558 23.9501 45.5485 26.0749 44.8843C27.7866 44.3493 28.2035 42.1107 26.8319 40.9554C25.1427 39.5324 26.2521 36.7391 28.4503 36.9545C30.2274 37.1286 31.4891 35.262 30.6649 33.6779L30.5927 33.5391C29.5798 31.5923 31.6986 29.5099 33.6276 30.5564C35.1921 31.4052 37.0704 30.1646 36.9039 28.3925L36.8928 28.2746C36.6878 26.0924 39.4397 24.9722 40.817 26.6771C41.9351 28.0613 44.148 27.6224 44.6589 25.918Z" fill="#D9D9D9"/>
</svg>
